<?xml version="1.0" encoding="UTF-8" standalone="no"?>
<svg
   height="8"
   viewBox="0 0 8 8"
   width="8"
   version="1.1"
   id="svg520"
   sodipodi:docname="question-mark.svg"
   inkscape:version="1.1.2 (0a00cf5339, 2022-02-04)"
   xmlns:inkscape="http://www.inkscape.org/namespaces/inkscape"
   xmlns:sodipodi="http://sodipodi.sourceforge.net/DTD/sodipodi-0.dtd"
   xmlns="http://www.w3.org/2000/svg"
   xmlns:svg="http://www.w3.org/2000/svg">
  <defs
     id="defs524" />
  <sodipodi:namedview
     id="namedview522"
     pagecolor="#505050"
     bordercolor="#eeeeee"
     borderopacity="1"
     inkscape:pageshadow="0"
     inkscape:pageopacity="0"
     inkscape:pagecheckerboard="0"
     showgrid="false"
     inkscape:zoom="85.25"
     inkscape:cx="3.9941349"
     inkscape:cy="3.9941349"
     inkscape:window-width="2560"
     inkscape:window-height="1019"
     inkscape:window-x="1080"
     inkscape:window-y="871"
     inkscape:window-maximized="1"
     inkscape:current-layer="svg520" />
  <path
     d="m 4.0562812,0.00109827 c -0.85,0 -1.48,0.26 -1.88,0.66 -0.4,0.40000003 -0.54,0.90000003 -0.59,1.28000003 l 1,0.13 c 0.04,-0.25 0.12,-0.5 0.31,-0.69 0.19,-0.19 0.49,-0.38 1.16,-0.38 0.66,0 1.02,0.16 1.22,0.34 0.2,0.18 0.28,0.4 0.28,0.66 0,0.83 -0.34,1.06 -0.84,1.5 -0.5,0.44 -1.16,1.08 -1.16,2.25 v 0.25 h 1 v -0.25 c 0,-0.83 0.31,-1.06 0.81,-1.5 0.5,-0.44 1.19,-1.08 1.19,-2.25 0,-0.48 -0.17,-1.02000003 -0.59,-1.41000003 -0.43,-0.39 -1.07,-0.59 -1.91,-0.59 z m -0.5,7.00000003 v 1 h 1 v -1 z"
     id="path518"
     style="fill:#f9f9f9" />
</svg>
